<mxfile host="65bd71144e">
    <diagram id="YjC-V1jiLNOm3QlCypXk" name="Page-1">
        <mxGraphModel dx="1187" dy="716" grid="1" gridSize="10" guides="1" tooltips="1" connect="1" arrows="1" fold="1" page="1" pageScale="1" pageWidth="850" pageHeight="1100" math="0" shadow="0">
            <root>
                <mxCell id="0"/>
                <mxCell id="1" parent="0"/>
                <mxCell id="41" value="" style="strokeWidth=5;shadow=0;dashed=0;align=center;html=1;shape=mxgraph.mockup.containers.browserWindow;rSize=0;strokeColor=#FE16D0;strokeColor2=#008cff;strokeColor3=#c4c4c4;mainText=,;recursiveResize=0;fillColor=#121212;fontFamily=Inter;fontSource=https%3A%2F%2Ffonts.googleapis.com%2Fcss%3Ffamily%3DInter;gradientColor=#A2FE32;" parent="1" vertex="1">
                    <mxGeometry x="10" y="60" width="790" height="680" as="geometry"/>
                </mxCell>
                <mxCell id="42" value="Gallery" style="strokeWidth=1;shadow=0;dashed=0;align=center;html=1;shape=mxgraph.mockup.containers.anchor;fontSize=17;fontColor=#666666;align=left;" parent="41" vertex="1">
                    <mxGeometry x="60" y="12" width="110" height="26" as="geometry"/>
                </mxCell>
                <mxCell id="43" value="https://www.draw.io" style="strokeWidth=1;shadow=0;dashed=0;align=center;html=1;shape=mxgraph.mockup.containers.anchor;rSize=0;fontSize=17;fontColor=#666666;align=left;" parent="41" vertex="1">
                    <mxGeometry x="130" y="60" width="250" height="26" as="geometry"/>
                </mxCell>
                <mxCell id="44" value="" style="edgeStyle=none;html=1;" parent="41" target="49" edge="1">
                    <mxGeometry relative="1" as="geometry">
                        <mxPoint x="280" y="530" as="sourcePoint"/>
                    </mxGeometry>
                </mxCell>
                <mxCell id="47" value="" style="strokeColor=#999999;verticalLabelPosition=bottom;shadow=0;dashed=0;verticalAlign=top;strokeWidth=2;html=1;shape=mxgraph.mockup.misc.copyrightIcon;labelBorderColor=none;fontColor=#333333;fillColor=#333333;" parent="41" vertex="1">
                    <mxGeometry x="70" y="630" width="25" height="25" as="geometry"/>
                </mxCell>
                <mxCell id="48" value="&lt;h3&gt;&lt;font style=&quot;color: rgb(255, 255, 255);&quot; data-font-src=&quot;https://fonts.googleapis.com/css?family=Oswald&quot; face=&quot;Oswald&quot;&gt;Need a Project?&lt;/font&gt;&lt;/h3&gt;" style="text;html=1;strokeColor=none;fillColor=none;align=center;verticalAlign=middle;whiteSpace=wrap;rounded=0;labelBorderColor=none;fontColor=#E76F51;" parent="41" vertex="1">
                    <mxGeometry x="362.5" y="540" width="60" height="30" as="geometry"/>
                </mxCell>
                <mxCell id="49" value="&lt;font style=&quot;color: rgb(254, 22, 208);&quot; face=&quot;Poppins&quot;&gt;Contact&lt;/font&gt;" style="strokeWidth=5;shadow=0;dashed=0;align=center;html=1;shape=mxgraph.mockup.buttons.button;strokeColor=#FE16D0;fontColor=#ffffff;mainText=;buttonStyle=round;fontSize=17;fontStyle=1;fillColor=#121212;whiteSpace=wrap;labelBorderColor=none;" parent="41" vertex="1">
                    <mxGeometry x="320" y="590" width="150" height="50" as="geometry"/>
                </mxCell>
                <mxCell id="54" value="" style="verticalLabelPosition=bottom;shadow=0;dashed=0;align=center;html=1;verticalAlign=top;strokeWidth=1;shape=mxgraph.mockup.graphics.simpleIcon;strokeColor=#999999;gradientColor=#A2FE32;" parent="41" vertex="1">
                    <mxGeometry x="120" y="230" width="50" height="50" as="geometry"/>
                </mxCell>
                <mxCell id="55" value="" style="verticalLabelPosition=bottom;shadow=0;dashed=0;align=center;html=1;verticalAlign=top;strokeWidth=1;shape=mxgraph.mockup.graphics.simpleIcon;strokeColor=#999999;gradientColor=#FE16D0;" parent="41" vertex="1">
                    <mxGeometry x="120" y="390" width="50" height="50" as="geometry"/>
                </mxCell>
                <mxCell id="56" value="" style="verticalLabelPosition=bottom;shadow=0;dashed=0;align=center;html=1;verticalAlign=top;strokeWidth=1;shape=mxgraph.mockup.graphics.simpleIcon;strokeColor=#999999;gradientColor=#FE16D0;" parent="41" vertex="1">
                    <mxGeometry x="372.5" y="230" width="50" height="50" as="geometry"/>
                </mxCell>
                <mxCell id="57" value="" style="verticalLabelPosition=bottom;shadow=0;dashed=0;align=center;html=1;verticalAlign=top;strokeWidth=1;shape=mxgraph.mockup.graphics.simpleIcon;strokeColor=#999999;gradientColor=#A2FE32;" parent="41" vertex="1">
                    <mxGeometry x="625" y="230" width="50" height="50" as="geometry"/>
                </mxCell>
                <mxCell id="60" value="" style="verticalLabelPosition=bottom;shadow=0;dashed=0;align=center;html=1;verticalAlign=top;strokeWidth=1;shape=mxgraph.mockup.graphics.simpleIcon;strokeColor=#999999;gradientColor=#A2FE32;" parent="41" vertex="1">
                    <mxGeometry x="370" y="400" width="50" height="50" as="geometry"/>
                </mxCell>
                <mxCell id="61" value="" style="verticalLabelPosition=bottom;shadow=0;dashed=0;align=center;html=1;verticalAlign=top;strokeWidth=1;shape=mxgraph.mockup.graphics.simpleIcon;strokeColor=#999999;gradientColor=#FE16D0;" parent="41" vertex="1">
                    <mxGeometry x="625" y="390" width="50" height="50" as="geometry"/>
                </mxCell>
                <mxCell id="64" value="" style="edgeStyle=none;html=1;" parent="41" edge="1">
                    <mxGeometry relative="1" as="geometry">
                        <mxPoint x="270" y="540" as="sourcePoint"/>
                        <mxPoint x="272.5" y="530" as="targetPoint"/>
                    </mxGeometry>
                </mxCell>
                <mxCell id="66" value="" style="rounded=0;whiteSpace=wrap;html=1;fillColor=#A2FE32;strokeColor=#A2FE32;strokeWidth=5;" parent="41" vertex="1">
                    <mxGeometry x="100" y="300" width="90" height="30" as="geometry"/>
                </mxCell>
                <mxCell id="67" value="" style="rounded=0;whiteSpace=wrap;html=1;fillColor=#121212;strokeColor=#FE16D0;strokeWidth=5;" parent="41" vertex="1">
                    <mxGeometry x="350" y="300" width="95" height="30" as="geometry"/>
                </mxCell>
                <mxCell id="68" value="" style="rounded=0;whiteSpace=wrap;html=1;fillColor=#A2FE32;strokeColor=#A2FE32;strokeWidth=5;" parent="41" vertex="1">
                    <mxGeometry x="605" y="300" width="90" height="30" as="geometry"/>
                </mxCell>
                <mxCell id="69" value="" style="rounded=0;whiteSpace=wrap;html=1;fillColor=#121212;strokeColor=#FE16D0;strokeWidth=5;" parent="41" vertex="1">
                    <mxGeometry x="100" y="460" width="90" height="30" as="geometry"/>
                </mxCell>
                <mxCell id="70" value="" style="rounded=0;whiteSpace=wrap;html=1;fillColor=#A2FE32;strokeColor=#A2FE32;strokeWidth=5;" parent="41" vertex="1">
                    <mxGeometry x="340" y="470" width="105" height="30" as="geometry"/>
                </mxCell>
                <mxCell id="71" value="" style="rounded=0;whiteSpace=wrap;html=1;fillColor=#121212;strokeColor=#FE16D0;strokeWidth=5;" parent="41" vertex="1">
                    <mxGeometry x="605" y="470" width="90" height="30" as="geometry"/>
                </mxCell>
                <mxCell id="72" value="&lt;font style=&quot;&quot; face=&quot;Bebas Neue&quot; data-font-src=&quot;https://fonts.googleapis.com/css?family=Bebas+Neue&quot;&gt;Project 1&lt;/font&gt;" style="text;html=1;align=center;verticalAlign=middle;whiteSpace=wrap;rounded=0;fontColor=#121212;" parent="41" vertex="1">
                    <mxGeometry x="115" y="300" width="60" height="30" as="geometry"/>
                </mxCell>
                <mxCell id="73" value="&lt;font face=&quot;Bebas Neue&quot; style=&quot;color: rgb(254, 22, 208);&quot; data-font-src=&quot;https://fonts.googleapis.com/css?family=Bebas+Neue&quot;&gt;Project 2&lt;/font&gt;" style="text;html=1;align=center;verticalAlign=middle;whiteSpace=wrap;rounded=0;" parent="41" vertex="1">
                    <mxGeometry x="367.5" y="300" width="60" height="30" as="geometry"/>
                </mxCell>
                <mxCell id="74" value="&lt;font face=&quot;Bebas Neue&quot; style=&quot;color: rgb(18, 18, 18);&quot; data-font-src=&quot;https://fonts.googleapis.com/css?family=Bebas+Neue&quot;&gt;Project 3&lt;/font&gt;" style="text;html=1;align=center;verticalAlign=middle;whiteSpace=wrap;rounded=0;" parent="41" vertex="1">
                    <mxGeometry x="620" y="300" width="60" height="30" as="geometry"/>
                </mxCell>
                <mxCell id="75" value="&lt;font face=&quot;Bebas Neue&quot; style=&quot;color: rgb(254, 22, 208);&quot; data-font-src=&quot;https://fonts.googleapis.com/css?family=Bebas+Neue&quot;&gt;Project 4&lt;/font&gt;" style="text;html=1;align=center;verticalAlign=middle;whiteSpace=wrap;rounded=0;" parent="41" vertex="1">
                    <mxGeometry x="115" y="460" width="60" height="30" as="geometry"/>
                </mxCell>
                <mxCell id="76" value="&lt;font face=&quot;Bebas Neue&quot; style=&quot;color: rgb(18, 18, 18);&quot; data-font-src=&quot;https://fonts.googleapis.com/css?family=Bebas+Neue&quot;&gt;Project 5&lt;/font&gt;" style="text;html=1;align=center;verticalAlign=middle;whiteSpace=wrap;rounded=0;" parent="41" vertex="1">
                    <mxGeometry x="367.5" y="470" width="55" height="30" as="geometry"/>
                </mxCell>
                <mxCell id="77" value="&lt;font face=&quot;Bebas Neue&quot; data-font-src=&quot;https://fonts.googleapis.com/css?family=Bebas+Neue&quot; style=&quot;color: rgb(254, 22, 208);&quot;&gt;Project 6&lt;/font&gt;" style="text;html=1;align=center;verticalAlign=middle;whiteSpace=wrap;rounded=0;fontColor=#121212;" parent="41" vertex="1">
                    <mxGeometry x="620" y="470" width="60" height="30" as="geometry"/>
                </mxCell>
                <mxCell id="85" value="" style="strokeWidth=9;shadow=0;dashed=0;align=center;html=1;shape=mxgraph.mockup.rrect;rSize=10;fillColor=#F5F5DC;strokeColor=#121212;labelBackgroundColor=#A2FE32;fontFamily=Oswald;fontSource=https%3A%2F%2Ffonts.googleapis.com%2Fcss%3Ffamily%3DOswald;" vertex="1" parent="41">
                    <mxGeometry x="560" y="140" width="45" height="30" as="geometry"/>
                </mxCell>
                <mxCell id="86" value="&lt;font style=&quot;color: rgb(254, 22, 208);&quot; face=&quot;Poppins&quot;&gt;GitHub&lt;/font&gt;" style="strokeWidth=2;shadow=0;dashed=0;align=center;html=1;shape=mxgraph.mockup.leftButton;rSize=10;fontSize=17;fontColor=#F5F5DC;fontStyle=1;fillColor=#121212;strokeColor=#FE16D0;resizeHeight=1;fontFamily=Oswald;fontSource=https%3A%2F%2Ffonts.googleapis.com%2Fcss%3Ffamily%3DOswald;" vertex="1" parent="85">
                    <mxGeometry width="95" height="30" relative="1" as="geometry"/>
                </mxCell>
                <mxCell id="87" value="" style="strokeWidth=9;shadow=0;dashed=0;align=center;html=1;shape=mxgraph.mockup.rrect;rSize=10;fillColor=#F5F5DC;strokeColor=#121212;labelBackgroundColor=#A2FE32;fontFamily=Oswald;fontSource=https%3A%2F%2Ffonts.googleapis.com%2Fcss%3Ffamily%3DOswald;" vertex="1" parent="41">
                    <mxGeometry x="660" y="140" width="50" height="30" as="geometry"/>
                </mxCell>
                <mxCell id="88" value="&lt;font style=&quot;color: rgb(18, 18, 18);&quot; face=&quot;Poppins&quot;&gt;LinkedIn&lt;/font&gt;" style="strokeWidth=2;shadow=0;dashed=0;align=center;html=1;shape=mxgraph.mockup.leftButton;rSize=10;fontSize=17;fontColor=#F5F5DC;fontStyle=1;fillColor=#A2FE32;strokeColor=#FFFFFF;resizeHeight=1;fontFamily=Oswald;fontSource=https%3A%2F%2Ffonts.googleapis.com%2Fcss%3Ffamily%3DOswald;" vertex="1" parent="87">
                    <mxGeometry width="95" height="30" relative="1" as="geometry"/>
                </mxCell>
                <mxCell id="89" value="&lt;font data-font-src=&quot;https://fonts.googleapis.com/css?family=Poppins&quot; face=&quot;Poppins&quot; style=&quot;color: rgb(255, 255, 255);&quot;&gt;Gallery&lt;/font&gt;" style="strokeWidth=9;shadow=0;dashed=0;align=center;html=1;shape=mxgraph.mockup.buttons.button;strokeColor=#121212;fontColor=#ffffff;mainText=;buttonStyle=round;fontSize=17;fontStyle=1;fillColor=#121212;whiteSpace=wrap;fontFamily=Oswald;fontSource=https%3A%2F%2Ffonts.googleapis.com%2Fcss%3Ffamily%3DOswald;" vertex="1" parent="41">
                    <mxGeometry x="40" y="135" width="120" height="40" as="geometry"/>
                </mxCell>
                <mxCell id="90" value="&lt;font face=&quot;Poppins&quot; style=&quot;color: rgb(255, 255, 255);&quot;&gt;About&lt;/font&gt;" style="text;html=1;align=center;verticalAlign=middle;whiteSpace=wrap;rounded=0;" vertex="1" parent="41">
                    <mxGeometry x="150" y="140" width="60" height="30" as="geometry"/>
                </mxCell>
                <mxCell id="91" value="" style="line;strokeWidth=2;html=1;fontColor=#FE16D0;strokeColor=#FE16D0;" vertex="1" parent="41">
                    <mxGeometry x="60" y="160" width="80" height="30" as="geometry"/>
                </mxCell>
                <mxCell id="83" value="&lt;div style=&quot;&quot;&gt;&lt;font style=&quot;font-size: 15px;&quot;&gt;&lt;b style=&quot;background-color: transparent;&quot;&gt;Color Scheme:&lt;/b&gt;&lt;span style=&quot;background-color: transparent;&quot;&gt;&amp;nbsp;&lt;/span&gt;&lt;/font&gt;&lt;/div&gt;&lt;div style=&quot;&quot;&gt;&lt;span style=&quot;background-color: transparent;&quot;&gt;&lt;font style=&quot;font-size: 15px;&quot;&gt;(Modern, Techy, Tropical, night-life feel)&lt;/font&gt;&lt;/span&gt;&lt;/div&gt;&lt;font style=&quot;color: rgb(18, 18, 18); font-size: 15px;&quot;&gt;&lt;div style=&quot;text-align: left;&quot;&gt;&lt;span style=&quot;background-color: transparent;&quot;&gt;- Background Color:&amp;nbsp;&lt;/span&gt;&lt;span style=&quot;background-color: transparent; line-height: 18.4px; color: rgb(0, 0, 0);&quot;&gt;#&lt;span style=&quot;line-height: 15.3333px; color: rgb(0, 0, 0);&quot;&gt;121212&lt;/span&gt;&lt;span style=&quot;color: rgb(0, 0, 0);&quot;&gt;&lt;/span&gt;&amp;nbsp;(Black)&lt;/span&gt;&lt;/div&gt;&lt;font face=&quot;Helvetica&quot;&gt;&lt;div style=&quot;text-align: left;&quot;&gt;&lt;span style=&quot;background-color: transparent;&quot;&gt;- Accent Color 1:&amp;nbsp;&lt;/span&gt;&lt;span style=&quot;background-color: transparent; line-height: 18.4px; color: rgb(0, 0, 0);&quot;&gt;#&lt;/span&gt;&lt;span style=&quot;background-color: transparent; line-height: 18.4px; color: rgb(0, 0, 0);&quot;&gt;&lt;font&gt;FE16D0&lt;/font&gt;&lt;/span&gt;&lt;span style=&quot;background-color: transparent; line-height: 18.4px; color: rgb(0, 0, 0);&quot;&gt;&amp;nbsp;(Magenta)&lt;/span&gt;&lt;/div&gt;&lt;div style=&quot;text-align: left;&quot;&gt;&lt;span style=&quot;background-color: transparent;&quot;&gt;- Accent Color 2:&amp;nbsp;&lt;/span&gt;&lt;span style=&quot;background-color: transparent; line-height: 18.4px; color: rgb(0, 0, 0);&quot;&gt;#&lt;/span&gt;&lt;span style=&quot;background-color: transparent; line-height: 18.4px; color: rgb(0, 0, 0);&quot;&gt;&lt;font&gt;A2FE32&lt;/font&gt;&lt;/span&gt;&lt;span style=&quot;background-color: transparent; line-height: 18.4px; color: rgb(0, 0, 0);&quot;&gt;&amp;nbsp;(Neon Green)&lt;/span&gt;&lt;/div&gt;&lt;/font&gt;&lt;/font&gt;&lt;div&gt;&lt;div style=&quot;text-align: left;&quot;&gt;&lt;font style=&quot;font-size: 15px;&quot;&gt;&lt;span style=&quot;scrollbar-color: light-dark(#e2e2e2, #4b4b4b)&lt;br/&gt;&#x9;&#x9;&#x9;&#x9;&#x9;light-dark(#fbfbfb, var(--dark-panel-color)); line-height: 18.4px;&quot;&gt;&lt;span style=&quot;scrollbar-color: light-dark(#e2e2e2, #4b4b4b)&lt;br/&gt;&#x9;&#x9;&#x9;&#x9;&#x9;light-dark(#fbfbfb, var(--dark-panel-color)); line-height: 18.4px;&quot;&gt;&lt;font style=&quot;&quot; face=&quot;Helvetica&quot;&gt;&lt;span style=&quot;color: rgb(102, 102, 102);&quot;&gt;- &lt;/span&gt;&lt;span style=&quot;color: rgb(102, 102, 102);&quot;&gt;&lt;font style=&quot;color: rgb(18, 18, 18);&quot;&gt;Primary Text&lt;/font&gt;&lt;/span&gt;&lt;span style=&quot;color: rgb(102, 102, 102);&quot;&gt;:&amp;nbsp;&lt;/span&gt;&lt;span style=&quot;color: rgb(0, 0, 0); scrollbar-color: light-dark(#e2e2e2, #4b4b4b)&lt;br/&gt;&#x9;&#x9;&#x9;&#x9;&#x9;light-dark(#fbfbfb, var(--dark-panel-color)); line-height: 18.4px;&quot;&gt;#&lt;/span&gt;&lt;/font&gt;&lt;/span&gt;&lt;/span&gt;&lt;span style=&quot;color: light-dark(rgb(18, 18, 18), rgb(222, 222, 222)); background-color: transparent;&quot;&gt;&lt;font&gt;FFFFFF&lt;/font&gt;&lt;/span&gt;&lt;span style=&quot;color: light-dark(rgb(18, 18, 18), rgb(222, 222, 222)); background-color: transparent;&quot;&gt;&amp;nbsp;(White)&lt;/span&gt;&lt;/font&gt;&lt;/div&gt;&lt;/div&gt;" style="strokeWidth=1;shadow=0;dashed=0;align=center;html=1;shape=mxgraph.mockup.text.stickyNote2;fontColor=#666666;mainText=;fontSize=17;whiteSpace=wrap;fillColor=#ffffcc;strokeColor=#F62E00;" vertex="1" parent="1">
                    <mxGeometry x="50" y="760" width="340" height="170" as="geometry"/>
                </mxCell>
                <mxCell id="84" value="&lt;b&gt;&lt;font style=&quot;font-size: 15px; color: rgb(18, 18, 18);&quot;&gt;Fonts&lt;/font&gt;&lt;/b&gt;&lt;div&gt;&lt;font style=&quot;font-size: 15px; color: rgb(18, 18, 18);&quot;&gt;&lt;b&gt;&amp;nbsp;(&lt;/b&gt;&lt;span&gt;Modern, Techy, Tropical, night-life feel&lt;/span&gt;&lt;b&gt;)&lt;/b&gt;&lt;br&gt;&lt;div style=&quot;&quot;&gt;&lt;span style=&quot;background-color: transparent;&quot;&gt;- Headings: &lt;b&gt;Oswald&lt;/b&gt;&lt;/span&gt;&lt;/div&gt;&lt;/font&gt;&lt;div style=&quot;&quot;&gt;&lt;font style=&quot;font-size: 15px; color: rgb(18, 18, 18);&quot;&gt;&lt;span&gt;- Body Text: &lt;b&gt;Inter&lt;/b&gt;&lt;/span&gt;&lt;br&gt;&lt;/font&gt;&lt;/div&gt;&lt;div style=&quot;&quot;&gt;&lt;font style=&quot;font-size: 15px; color: rgb(18, 18, 18);&quot;&gt;&lt;span&gt;- Gallery Captions: &lt;b&gt;Bebas Neue&lt;/b&gt;&lt;/span&gt;&lt;span&gt;&lt;br&gt;&lt;/span&gt;&lt;/font&gt;&lt;/div&gt;&lt;div style=&quot;&quot;&gt;&lt;span&gt;&lt;font style=&quot;font-size: 15px; color: rgb(18, 18, 18);&quot;&gt;- Buttons: &lt;b style=&quot;&quot;&gt;Poppins&lt;/b&gt;&lt;/font&gt;&lt;/span&gt;&lt;span style=&quot;color: rgb(102, 102, 102);&quot;&gt;&lt;br&gt;&lt;/span&gt;&lt;/div&gt;&lt;/div&gt;" style="strokeWidth=1;shadow=0;dashed=0;align=center;html=1;shape=mxgraph.mockup.text.stickyNote2;fontColor=#666666;mainText=;fontSize=17;whiteSpace=wrap;fillColor=#ffffcc;strokeColor=#F62E00;" vertex="1" parent="1">
                    <mxGeometry x="370" y="770" width="360" height="150" as="geometry"/>
                </mxCell>
            </root>
        </mxGraphModel>
    </diagram>
</mxfile>